<!-- Generated by IcoMoon.io -->
<svg version="1.1" xmlns="http://www.w3.org/2000/svg" width="896" height="1024" viewBox="0 0 896 1024">
<title></title>
<g id="icomoon-ignore">
</g>
<path fill="currentColor" d="M896 419.82c-0.299 0.001-0.652 0.001-1.005 0.001-91.768 0-176.664-29.423-245.768-79.349l1.233 0.848v357.44c-0.068 179.496-145.594 324.981-325.1 324.981-179.548 0-325.1-145.552-325.1-325.1s145.552-325.1 325.1-325.1c15.745 0 31.228 1.119 46.375 3.283l-1.735-0.203v179.78c-13.386-4.362-28.789-6.877-44.78-6.877-82.423 0-149.24 66.817-149.24 149.24s66.817 149.24 149.24 149.24c82.423 0 149.24-66.817 149.24-149.24 0-0.001 0-0.002 0-0.004v0-698.76h176c-0.005 0.592-0.008 1.292-0.008 1.993 0 14.966 1.356 29.615 3.953 43.83l-0.225-1.484c12.99 67.689 52.414 124.345 106.88 159.865l0.94 0.575c37.691 25.239 84.063 40.28 133.949 40.28 0.018 0 0.036 0 0.054 0h-0.003z"></path>
</svg>
